<?xml version="1.0" encoding="UTF-8"?>
<svg width="32px" height="33px" viewBox="0 0 32 33" version="1.1" xmlns="http://www.w3.org/2000/svg" xmlns:xlink="http://www.w3.org/1999/xlink">
    <title>Slice 1</title>
    <g id="Page-1" stroke="none" stroke-width="1" fill="none" fill-rule="evenodd">
        <g id="right-arrow-(1)" transform="translate(15.856672, 16.856672) rotate(-45.000000) translate(-15.856672, -16.856672) translate(3.785604, 6.503020)" fill="#FFFFFF" fill-rule="nonzero">
            <path d="M23.3167025,8.39345232 L15.0629917,0.271556691 C14.6956328,-0.0899248607 14.0993925,-0.0905719316 13.731139,0.269939014 C13.3629325,0.630496179 13.3621791,1.21581805 13.729491,1.57725338 L21.9840493,9.70002718 C22.3511728,10.0604457 22.3511728,10.646923 21.9832018,11.0081273 L13.729491,19.1300691 C13.3622262,19.4915045 13.3629325,20.0768263 13.731139,20.4373835 C13.9149597,20.6173617 14.1556594,20.7073045 14.3962649,20.7073045 C14.6376238,20.7073045 14.8790297,20.6167608 15.0630388,20.4357196 L23.3159021,12.3146559 C24.4174139,11.2333542 24.4174139,9.47392211 23.3167025,8.39345232 Z" id="Path"></path>
            <path d="M17.7751646,9.35168591 L0.928207393,9.35168591 C0.415537673,9.35168591 0,9.80029391 0,10.3536523 C0,10.9070106 0.415537673,11.3556186 0.928207393,11.3556186 L17.7751646,11.3556186 C18.2878343,11.3556186 18.703372,10.9070607 18.703372,10.3536523 C18.703372,9.80024382 18.2878343,9.35168591 17.7751646,9.35168591 Z" id="Path"></path>
        </g>
    </g>
</svg>